<svg xmlns="http://www.w3.org/2000/svg" viewBox="0 0 544.628 132.8598"><defs><style>.a{fill:#0b0754;}.b{fill:#00f7c1;}</style></defs><path class="a" d="M181.2361,93.82q-7.434-7.1826-7.4332-20.5107V39.3868h14.42V72.79q0,16.2717,13.8854,16.2694,6.7647,0,10.3255-3.938,3.5583-3.9348,3.56-12.3314V39.3868h14.243V73.3093q0,13.3289-7.4332,20.5107-7.4316,7.1828-20.7839,7.1819T181.2361,93.82Z"/><path class="a" d="M288.3167,57.9059q5.4753,5.1918,5.4744,15.4034V99.9639H279.9057V75.3869q0-5.5363-2.4936-8.2652-2.4928-2.7249-7.21-2.7249a11.2193,11.2193,0,0,0-8.3667,3.1579q-3.1179,3.1611-3.1154,9.3893v23.02H244.8345V53.4051h13.262V58.858a18.4547,18.4547,0,0,1,6.8541-4.543,24.4647,24.4647,0,0,1,8.99-1.6009Q282.8414,52.7141,288.3167,57.9059Z"/><path class="a" d="M308.39,44.7522a7.1905,7.1905,0,0,1,0-10.7307,8.959,8.959,0,0,1,6.2307-2.1636,9.1964,9.1964,0,0,1,6.2307,2.0761,6.5809,6.5809,0,0,1,2.4034,5.1933,7.2477,7.2477,0,0,1-2.4034,5.5811,8.8538,8.8538,0,0,1-6.2307,2.2074A8.9516,8.9516,0,0,1,308.39,44.7522Zm-.712,8.6529h13.8854V99.9639H307.6782Z"/><path class="a" d="M379.2873,57.9059q5.4753,5.1918,5.4744,15.4034V99.9639H370.8763V75.3869q0-5.5363-2.4936-8.2652-2.4928-2.7249-7.21-2.7249a11.2193,11.2193,0,0,0-8.3667,3.1579q-3.1179,3.1611-3.1154,9.3893v23.02H335.8051V35.7521h13.8854V58.2514a18.5563,18.5563,0,0,1,6.6753-4.11,24.7735,24.7735,0,0,1,8.5455-1.4273Q373.812,52.7141,379.2873,57.9059Z"/><path class="a" d="M445.8238,80.4927H409.596a10.9441,10.9441,0,0,0,4.628,6.8364,15.6424,15.6424,0,0,0,9.08,2.5092,18.833,18.833,0,0,0,6.631-1.0819,16.1447,16.1447,0,0,0,5.3859-3.4174l7.3873,7.7885q-6.7647,7.53-19.76,7.5289a32.0074,32.0074,0,0,1-14.3317-3.0719,22.5053,22.5053,0,0,1-12.9962-20.9,23.1123,23.1123,0,0,1,12.5074-20.8984,29.1075,29.1075,0,0,1,25.7678-.13,21.8246,21.8246,0,0,1,8.9458,8.4372,24.6157,24.6157,0,0,1,3.25,12.7645Q446.0912,77.1184,445.8238,80.4927Zm-32.489-14.9719a10.9714,10.9714,0,0,0-3.9176,7.0959h23.5892a11.085,11.085,0,0,0-3.916-7.0521,11.9271,11.9271,0,0,0-7.8335-2.6389A12.1756,12.1756,0,0,0,413.3348,65.5208Z"/><path class="a" d="M476.6674,54.4447a25.5641,25.5641,0,0,1,9.7464-1.7306V65.1754q-2.3155-.1735-3.1154-.1736-5.9649,0-9.3461,3.2455-3.3835,3.2454-3.3827,9.7363v21.98H456.6841V53.4051h13.2621v6.1454A15.3618,15.3618,0,0,1,476.6674,54.4447Z"/><path class="a" d="M504.7943,97.5845a23.2389,23.2389,0,0,1-9.39-8.5248,24.3273,24.3273,0,0,1,0-24.75,23.2352,23.2352,0,0,1,9.39-8.5232,31.43,31.43,0,0,1,27.1048,0,23.3134,23.3134,0,0,1,9.3461,8.5232,24.3273,24.3273,0,0,1,0,24.75,23.3171,23.3171,0,0,1-9.3461,8.5248,31.4307,31.4307,0,0,1-27.1048,0Zm22.3423-11.5107a12.8524,12.8524,0,0,0,3.4271-9.3893,12.8574,12.8574,0,0,0-3.4271-9.3893A11.73,11.73,0,0,0,518.37,63.79a11.878,11.878,0,0,0-8.813,3.5049,12.7575,12.7575,0,0,0-3.4713,9.3893,12.7526,12.7526,0,0,0,3.4713,9.3893,11.8781,11.8781,0,0,0,8.813,3.505A11.73,11.73,0,0,0,527.1366,86.0738Z"/><path class="b" d="M139.8588,39.8721,71.1874.2249a1.678,1.678,0,0,0-1.6784,0L.8392,39.8721a1.679,1.679,0,0,0,0,2.9078l5.4734,3.16a7.525,7.525,0,0,0-.7686,3.2794V74.44a4.0905,4.0905,0,0,0-.862,5.2193L1.8634,98.7878l-.0164.1105V99.01c0,2.565,2.6442,4.3562,6.43,4.3562s6.43-1.7912,6.43-4.3562v-.1171l-2.94-19.0419a4.1258,4.1258,0,0,0-.7576-5.4112v-25.22a2.075,2.075,0,0,1,.0706-.5271l11.9957,6.9259.05,29.7194a47.2637,47.2637,0,1,0,94.5259,0V55.6013L139.8588,42.78a1.679,1.679,0,0,0,0-2.9078ZM102.4039,85.3376a32.0167,32.0167,0,1,1-64.0312-.0128L38.3377,64.43,69.509,82.427a1.68,1.68,0,0,0,1.6784,0l31.2165-18.0227Z"/></svg>