<?xml version="1.0" encoding="utf-8"?>
<!-- Generator: Adobe Illustrator 25.0.0, SVG Export Plug-In . SVG Version: 6.00 Build 0)  -->
<svg version="1.1" id="Layer_1" xmlns="http://www.w3.org/2000/svg" xmlns:xlink="http://www.w3.org/1999/xlink" x="0px" y="0px"
	 viewBox="0 0 1559 1192" style="enable-background:new 0 0 1559 1192;" xml:space="preserve">
<style type="text/css">
	.st0{clip-path:url(#SVGID_2_);}
	.st1{fill:#00F7C1;}
	.st2{fill:#FBE2A0;}
	.st3{fill:#8B93B7;}
	.st4{fill:#FFFFFF;}
	.st5{fill:none;stroke:#296C72;stroke-width:2.3435;stroke-miterlimit:10;}
	.st6{fill:#0E4947;}
	.st7{fill:none;stroke:#296C72;stroke-width:2.3435;stroke-linecap:round;stroke-miterlimit:10;}
	.st8{fill:#0B0754;}
	.st9{fill:#303070;}
	.st10{fill:#FEF3F9;}
	.st11{fill:#BCBEC0;}
	.st12{fill:#FD5852;}
</style>
<g>
	<defs>
		<rect id="SVGID_1_" x="6.7" y="0.5" width="1559.4" height="1173.3"/>
	</defs>
	<clipPath id="SVGID_2_">
		<use xlink:href="#SVGID_1_"  style="overflow:visible;"/>
	</clipPath>
	<g class="st0">
		<path class="st1" d="M130.3,1189.5C-8.8,1007.1-0.8,724.6,148.5,550.7c40.6-47.3,90.8-87.2,148.7-108.7
			c48.1-17.9,100.1-22.7,151.3-22.8c104.5-0.2,202.3,50,307.7,21.6c86.9-23.4,149.3-88.7,219.6-140.4
			c68.8-50.6,186.4-40.2,266.7-18.2c82.7,22.5,159.3,73.3,203.7,146.6c38.6,63.8,57.5,163.4,18.9,232
			c-41.7,74.2-105.9,132-137.4,214.9c-41.4,109.1-17.6,204.5,18.1,309.3c-49.5,15.1-119.4,3.6-171.4,3.6
			c-99.5,0.1-198.9,0.2-298.4,0.3C627.5,1189,378.9,1189.3,130.3,1189.5z"/>
		<path class="st2" d="M1271.1,548.1h-27.6c-4.5-17.9-11.6-34.8-20.8-50.2l19.5-19.5c6.5-6.5,6.5-17,0-23.5l-40.2-40.2
			c-6.5-6.5-17-6.5-23.5,0l-19.5,19.5c-15.4-9.3-32.3-16.3-50.2-20.8v-27.6c0-9.2-7.4-16.6-16.6-16.6h-56.8
			c-9.2,0-16.6,7.4-16.6,16.6v27.6c-17.9,4.5-34.8,11.6-50.2,20.8L949,414.6c-6.5-6.5-17-6.5-23.5,0l-40.2,40.2
			c-6.5,6.5-6.5,17,0,23.5l19.5,19.5c-9.3,15.4-16.3,32.3-20.8,50.2h-27.6c-9.2,0-16.6,7.4-16.6,16.6v56.8c0,9.2,7.4,16.6,16.6,16.6
			H884c4.5,17.9,11.6,34.8,20.8,50.2l-19.5,19.5c-6.5,6.5-6.5,17,0,23.5l40.2,40.2c6.5,6.5,17,6.5,23.5,0l19.5-19.5
			c15.4,9.3,32.3,16.3,50.2,20.8v27.6c0,9.2,7.4,16.6,16.6,16.6h56.8c9.2,0,16.6-7.4,16.6-16.6v-27.6c17.9-4.5,34.8-11.6,50.2-20.8
			l19.5,19.5c6.5,6.5,17,6.5,23.5,0l40.2-40.2c6.5-6.5,6.5-17,0-23.5l-19.5-19.5c9.3-15.4,16.3-32.3,20.8-50.2h27.6
			c9.2,0,16.6-7.4,16.6-16.6v-56.8C1287.6,555.5,1280.2,548.1,1271.1,548.1z M1063.8,705.2c-61.9,0-112.1-50.2-112.1-112.1
			c0-61.9,50.2-112.1,112.1-112.1c61.9,0,112.1,50.2,112.1,112.1C1175.9,655,1125.7,705.2,1063.8,705.2z"/>
		<g>
			<path class="st3" d="M260.6,955.5H83.2v179.4c0,21.5,17.4,38.9,38.9,38.9h99.7c21.5,0,38.9-17.4,38.9-38.9V955.5z"/>
			<path class="st3" d="M22.2,1036.6c0-32.6,26.5-59,59-59h92.9v118.1H81.2C48.6,1095.6,22.2,1069.1,22.2,1036.6z M142.1,1009.5
				H81.2c-14.9,0-27,12.1-27,27c0,14.9,12.1,27,27,27h60.9V1009.5z"/>
		</g>
		<path class="st4" d="M870.5,594h-18.2c-3-11.8-7.6-23-13.7-33.1l12.9-12.9c4.3-4.3,4.3-11.2,0-15.5L824.9,506
			c-4.3-4.3-11.2-4.3-15.5,0l-12.9,12.9c-10.2-6.1-21.3-10.8-33.1-13.7V487c0-6-4.9-10.9-10.9-10.9H715c-6,0-10.9,4.9-10.9,10.9
			v18.2c-11.8,3-23,7.6-33.1,13.7L658,506c-4.3-4.3-11.2-4.3-15.5,0l-26.5,26.5c-4.3,4.3-4.3,11.2,0,15.5l12.9,12.9
			c-6.1,10.2-10.8,21.3-13.7,33.1H597c-6,0-10.9,4.9-10.9,10.9v37.5c0,6,4.9,10.9,10.9,10.9h18.2c3,11.8,7.6,23,13.7,33.1
			l-12.9,12.9c-4.3,4.3-4.3,11.2,0,15.5l26.5,26.5c4.3,4.3,11.2,4.3,15.5,0l12.9-12.9c10.2,6.1,21.3,10.8,33.1,13.7v18.2
			c0,6,4.9,10.9,10.9,10.9h37.5c6,0,10.9-4.9,10.9-10.9v-18.2c11.8-3,23-7.6,33.1-13.7l12.9,12.9c4.3,4.3,11.2,4.3,15.5,0l26.5-26.5
			c4.3-4.3,4.3-11.2,0-15.5l-12.9-12.9c6.1-10.2,10.8-21.3,13.7-33.1h18.2c6,0,10.9-4.9,10.9-10.9V605
			C881.4,598.9,876.5,594,870.5,594z M733.7,697.7c-40.8,0-74-33.1-74-74c0-40.8,33.1-74,74-74c40.8,0,74,33.1,74,74
			C807.7,664.6,774.6,697.7,733.7,697.7z"/>
		<path class="st4" d="M1103.2,934.9c-0.4-44.1-3.2-62.6,0-77.2c25.4-18.8,52.9-30.9,79.6-38.5c-22.5,49.4-16.9,84.3-16.9,84.3
			c1.2-35.8,18.6-70.3,28.5-87.3c67.3-16.1,126.2-5.2,126.2-5.2c-6.2,21.9-12.8,41.9-19.8,60.1c-30,13.3-69.6,23.3-69.6,23.3
			c19.2-0.1,45.9-6.6,65.1-12c-10.7,26.2-22.3,48.6-34.8,68c-30.3,14.8-86.8,24.8-86.8,24.8c23,1.6,57.4-5.3,76.4-9.6
			c-23.6,32.4-50.3,55.7-80,74.6c-28.5,3.3-57.9,3.2-57.9,3.2c12.7,3.2,29.3,4.4,44.9,4.7c-34.6,20-73.2,35.4-116.1,52.7l-39.7,3.3
			l2.4-57.3c11-85.9,43.6-141.5,84-177.3C1098,887.3,1103.2,934.9,1103.2,934.9z"/>
		<g>
			<path class="st5" d="M1315.1,796.2c-54.6,75-81.3,175.3-106,262.9"/>
			<g>
				<g>
					<path class="st6" d="M1551.5,971.4c0,0-15.2-87.1-128.5-173.2c-113.3-86.1-115.7,6.2-115.7,6.2s-48.4,23.5,58.4,160.1l12.6-62
						l21.4,75.6l60.8,23.7l-0.1-44.1l29.2,45C1489.7,1002.9,1549.5,985.6,1551.5,971.4z"/>
					<path class="st7" d="M1551.5,971.4c0,0-169-220.1-244.2-167"/>
				</g>
			</g>
			<path class="st5" d="M1231.2,670.2c-46.8,126.2-35.9,219-46,385.4"/>
			<path class="st6" d="M1503.7,526.1c0,0-83.5-39.3-217.5,26.3c-134,65.5-55.1,126.9-55.1,126.9s-5,66.3,169.5,39.8l-47.2-52.9
				l76.8,25.4l52.4-49.5l-38.3-27.9l54.3-2.4C1498.7,611.8,1515,537.2,1503.7,526.1z"/>
			<path class="st7" d="M1503.7,526.1c0,0-279.3,39.4-272.6,153.1"/>
			<polygon class="st3" points="1142.5,958.7 1310.1,958.7 1263.9,1175.7 1178.2,1175.7 			"/>
		</g>
		<g>
			<path class="st4" d="M419.6,680.5c-1.6-4.8-3.3-9.6-5.1-14.2L419.6,680.5z"/>
			<path class="st4" d="M414.3,707.9l0.1-41.7c-8.9-22.9-19.7-42.8-29.3-57.7c-10.8,11.4-14.2,46.8-14.2,46.8
				c1-36.6,4.9-47.5,5.3-59.5c-15.8-20.6-40-31.8-59-44.1c7.6,43.5,7.1,54.4,7.1,54.4c-2.5-26-11-44.1-15.3-59.5
				c-48.6-28.6-73.8-21.1-73.8-21.1c0.5,18.4,6.5,59.1,8.3,74.8c20.5,17.5,49,34.7,49,34.7c-14.7-4.7-34-16.2-47.7-25
				c3.1,22.7,2.8,19,8.7,37c20.5,18.7,62,40.1,62,40.1c-18-4.4-43.2-17.9-56.9-25.8c11.8,30.6,27.8,55,47,76.8
				c21.3,9.4,43.9,16.4,43.9,16.4c-10.4-0.6-23.4-3.7-35.4-7.2c22.7,23.8,49.4,44.9,79,68.6l29.9,12.1l9.4-44.7
				c4.3-35.6-2-71.2-12.4-102.4L414.3,707.9z"/>
		</g>
		<path class="st4" d="M351.6,836.6c0.4-44.1,3.2-62.6,0-77.2c-25.4-18.8-52.9-30.9-79.6-38.5c22.5,49.4,16.9,84.3,16.9,84.3
			c-1.2-35.8-18.6-70.3-28.5-87.3c-67.3-16.1-126.2-5.2-126.2-5.2c6.2,21.9,12.8,41.9,19.8,60.1c30,13.3,69.6,23.3,69.6,23.3
			c-19.2-0.1-45.9-6.6-65.1-12c10.7,26.2,22.3,48.6,34.8,68c30.3,14.8,86.8,24.8,86.8,24.8c-23,1.6-57.4-5.3-76.4-9.6
			c23.6,32.4,50.3,55.7,80,74.6c28.5,3.3,57.9,3.2,57.9,3.2c-12.7,3.2-29.3,4.4-44.9,4.7c34.6,20,73.2,35.4,116.1,52.7l39.7,3.3
			l-2.4-57.3c-11-85.9-43.6-141.5-84-177.3C356.8,789,351.6,836.6,351.6,836.6z"/>
		<g>
			<path class="st4" d="M364.3,969.7c-3.8-1.3-7.7-2.6-11.4-3.7L364.3,969.7z"/>
			<path class="st4" d="M379,986.4L352.8,966c-18.8-5.5-36.6-8.4-50.6-9.6c2,12.3,22.6,31.8,22.6,31.8c-22.6-18.4-27.6-26.2-35-32.3
				c-20.7-0.1-39.5,9.7-56.6,15.8c31.1,16.3,37.8,22,37.8,22c-17.7-11.1-33.2-14.5-45-19.3c-41.7,16.7-49.2,36.3-49.2,36.3
				c11.8,8.6,40.4,24.7,51.2,31.2c21-4.4,45.8-14,45.8-14c-10.2,7-26.8,13.6-39,18c15.9,9.1,13.4,7.5,27.6,12.5
				c21.7-3.8,55.4-19.6,55.4-19.6c-11.5,9.2-32.3,18.5-44,23.3c25.1,7.4,48.2,9.3,71.3,7.7c16.3-8.8,31.7-19.7,31.7-19.7
				c-5.4,6.2-13.7,13-21.8,18.8c26.1-2.8,52.4-9.3,81.8-16.4l22.2-13l-23.6-27.7c-20.3-20.1-45.9-33.4-70.6-42.1L379,986.4z"/>
		</g>
		<path class="st8" d="M1082.8,1031.2H403.3V615c0-6.3,5.1-11.4,11.4-11.4h656.8c6.3,0,11.4,5.1,11.4,11.4V1031.2z"/>
		<rect x="435.6" y="635" class="st4" width="615" height="359.3"/>
		<polygon class="st9" points="1207.5,1136.6 278.7,1136.6 403.3,1031.2 1082.8,1031.2 		"/>
		<path class="st8" d="M1196.3,1176.7H289.9c-6.2,0-11.2-5-11.2-11.2v-28.9h928.8v28.9C1207.5,1171.7,1202.5,1176.7,1196.3,1176.7z"
			/>
		<g>
			<path class="st10" d="M491.8,1059.7h-37.6c-1.2,0-1.7-1.4-0.9-2.2l11.7-11.1c0.2-0.2,0.6-0.4,0.9-0.4h35.9c1.1,0,1.7,1.3,1,2.2
				l-10.1,11.1C492.5,1059.6,492.2,1059.7,491.8,1059.7z"/>
			<path class="st10" d="M551.4,1059.7h-38c-1.1,0-1.7-1.3-1-2.1l9.3-11.1c0.2-0.3,0.6-0.5,1-0.5H559c1,0,1.7,1.2,1.1,2l-7.6,11.1
				C552.2,1059.5,551.8,1059.7,551.4,1059.7z"/>
			<path class="st10" d="M610.9,1059.7h-38.3c-1,0-1.6-1.1-1.1-2l6.9-11.1c0.2-0.4,0.7-0.6,1.1-0.6h36.6c0.9,0,1.6,1,1.2,1.8
				L612,1059C611.8,1059.4,611.4,1059.7,610.9,1059.7z"/>
			<path class="st10" d="M670.4,1059.7h-38.5c-0.9,0-1.5-0.9-1.2-1.8l4.5-11.1c0.2-0.5,0.7-0.8,1.2-0.8h36.8c0.8,0,1.5,0.8,1.3,1.6
				l-2.8,11.1C671.5,1059.3,670.9,1059.7,670.4,1059.7z"/>
			<path class="st10" d="M729.8,1059.7h-38.6c-0.8,0-1.4-0.7-1.3-1.5l2.1-11.1c0.1-0.6,0.6-1.1,1.3-1.1h36.9c0.7,0,1.3,0.6,1.3,1.3
				l-0.4,11.1C731,1059.2,730.5,1059.7,729.8,1059.7z"/>
			<path class="st10" d="M789.1,1059.7h-38.6c-0.7,0-1.3-0.6-1.3-1.3l-0.4-11.1c0-0.7,0.6-1.3,1.3-1.3h36.9c0.6,0,1.2,0.4,1.3,1.1
				l2.1,11.1C790.5,1059,789.9,1059.7,789.1,1059.7z"/>
			<path class="st10" d="M848.4,1059.7h-38.5c-0.6,0-1.1-0.4-1.3-1l-2.8-11.1c-0.2-0.8,0.4-1.6,1.3-1.6h36.8c0.5,0,1,0.3,1.2,0.8
				l4.5,11.1C850,1058.8,849.3,1059.7,848.4,1059.7z"/>
			<path class="st10" d="M907.7,1059.7h-38.3c-0.5,0-1-0.3-1.2-0.7l-5.2-11.1c-0.4-0.9,0.2-1.8,1.2-1.8h36.6c0.4,0,0.9,0.2,1.1,0.6
				l6.9,11.1C909.3,1058.6,908.7,1059.7,907.7,1059.7z"/>
			<path class="st10" d="M966.9,1059.7h-38c-0.4,0-0.8-0.2-1.1-0.6l-7.6-11.1c-0.6-0.9,0-2,1.1-2h36.3c0.4,0,0.7,0.2,1,0.5l9.3,11.1
				C968.6,1058.4,968,1059.7,966.9,1059.7z"/>
			<path class="st10" d="M1026.1,1059.7h-37.6c-0.4,0-0.7-0.2-1-0.4l-10.1-11.1c-0.8-0.8-0.2-2.2,1-2.2h35.9c0.3,0,0.6,0.1,0.9,0.4
				l11.7,11.1C1027.8,1058.3,1027.2,1059.7,1026.1,1059.7z"/>
			<path class="st10" d="M473,1080.5h-40.8c-1.2,0-1.7-1.4-0.9-2.2l14-13.2c0.2-0.2,0.6-0.4,0.9-0.4H485c1.1,0,1.7,1.3,1,2.2
				l-12,13.2C473.7,1080.3,473.4,1080.5,473,1080.5z"/>
			<path class="st10" d="M537.1,1080.5H496c-1.1,0-1.7-1.3-1-2.1l11.1-13.2c0.2-0.3,0.6-0.5,1-0.5h39.1c1,0,1.7,1.2,1.1,2l-9.1,13.2
				C537.9,1080.3,537.5,1080.5,537.1,1080.5z"/>
			<path class="st10" d="M601.1,1080.5h-41.4c-1,0-1.6-1.1-1.1-2l8.2-13.2c0.2-0.4,0.7-0.6,1.1-0.6h39.4c0.9,0,1.6,1,1.2,1.8
				l-6.2,13.2C602.1,1080.2,601.6,1080.5,601.1,1080.5z"/>
			<path class="st10" d="M451.1,1104.6h-44.4c-1.2,0-1.7-1.4-0.9-2.2l16.7-15.8c0.2-0.2,0.6-0.4,0.9-0.4h42c1.1,0,1.7,1.3,1,2.2
				l-14.3,15.8C451.9,1104.5,451.5,1104.6,451.1,1104.6z"/>
			<path class="st10" d="M520.5,1104.6h-44.8c-1.1,0-1.7-1.3-1-2.1l13.3-15.8c0.2-0.3,0.6-0.5,1-0.5h42.4c1,0,1.7,1.2,1.1,2
				l-10.9,15.8C521.3,1104.4,520.9,1104.6,520.5,1104.6z"/>
			<path class="st10" d="M589.8,1104.6h-45.1c-1,0-1.6-1.1-1.1-2l9.8-15.8c0.2-0.4,0.7-0.6,1.1-0.6h42.7c0.9,0,1.6,1,1.2,1.8
				l-7.4,15.8C590.8,1104.4,590.3,1104.6,589.8,1104.6z"/>
			<path class="st10" d="M665.1,1080.5h-41.7c-0.9,0-1.5-0.9-1.2-1.8l5.3-13.2c0.2-0.5,0.7-0.8,1.2-0.8h39.7c0.8,0,1.5,0.8,1.3,1.6
				l-3.3,13.2C666.2,1080.1,665.7,1080.5,665.1,1080.5z"/>
			<path class="st10" d="M866.5,1104.6H613.8c-0.9,0-1.5-0.9-1.2-1.8l6.4-15.8c0.2-0.5,0.7-0.8,1.2-0.8h240c0.5,0,1,0.3,1.2,0.8
				l6.4,15.8C868.1,1103.7,867.4,1104.6,866.5,1104.6z"/>
			<path class="st10" d="M729.1,1080.5h-41.8c-0.8,0-1.4-0.7-1.3-1.5l2.4-13.2c0.1-0.6,0.6-1.1,1.3-1.1h39.8c0.7,0,1.3,0.6,1.3,1.3
				l-0.4,13.2C730.3,1079.9,729.8,1080.5,729.1,1080.5z"/>
			<path class="st10" d="M793,1080.5h-41.8c-0.7,0-1.3-0.6-1.3-1.3l-0.4-13.2c0-0.7,0.6-1.3,1.3-1.3h39.8c0.6,0,1.2,0.4,1.3,1.1
				l2.4,13.2C794.4,1079.7,793.8,1080.5,793,1080.5z"/>
			<path class="st10" d="M856.8,1080.5h-41.7c-0.6,0-1.1-0.4-1.3-1l-3.3-13.2c-0.2-0.8,0.4-1.6,1.3-1.6h39.7c0.5,0,1,0.3,1.2,0.8
				l5.3,13.2C858.3,1079.6,857.7,1080.5,856.8,1080.5z"/>
			<path class="st10" d="M920.6,1080.5h-41.4c-0.5,0-1-0.3-1.2-0.7l-6.2-13.2c-0.4-0.9,0.2-1.8,1.2-1.8h39.4c0.4,0,0.9,0.2,1.1,0.6
				l8.2,13.2C922.2,1079.4,921.6,1080.5,920.6,1080.5z"/>
			<path class="st10" d="M984.3,1080.5h-41.1c-0.4,0-0.8-0.2-1.1-0.6l-9.1-13.2c-0.6-0.9,0-2,1.1-2h39.1c0.4,0,0.7,0.2,1,0.5
				l11.1,13.2C986,1079.2,985.4,1080.5,984.3,1080.5z"/>
			<path class="st10" d="M995.9,1094.3h-43.2c-0.4,0-0.8-0.2-1.1-0.6l-3.8-5.5c-0.6-0.9,0-2,1.1-2h42.4c0.4,0,0.7,0.2,1,0.5l4.6,5.5
				C997.6,1093.1,997,1094.3,995.9,1094.3z"/>
			<path class="st10" d="M1004.6,1104.6h-44.8c-0.4,0-0.8-0.2-1.1-0.6l-4.2-6.2c-0.6-0.9,0-2,1.1-2h43.8c0.4,0,0.7,0.2,1,0.5
				l5.2,6.2C1006.3,1103.4,1005.7,1104.6,1004.6,1104.6z"/>
			<path class="st10" d="M1073.5,1104.6h-44.4c-0.4,0-0.7-0.2-1-0.4l-5.6-6.2c-0.8-0.8-0.2-2.2,1-2.2h43.5c0.3,0,0.6,0.1,0.9,0.4
				l6.5,6.2C1075.3,1103.2,1074.7,1104.6,1073.5,1104.6z"/>
			<path class="st10" d="M935.6,1104.6h-45.1c-0.5,0-1-0.3-1.2-0.7l-2.9-6.2c-0.4-0.9,0.2-1.8,1.2-1.8h44.2c0.4,0,0.9,0.2,1.1,0.6
				l3.8,6.2C937.2,1103.5,936.6,1104.6,935.6,1104.6z"/>
			<path class="st10" d="M1048,1080.5h-40.8c-0.4,0-0.7-0.2-1-0.4l-12-13.2c-0.8-0.8-0.2-2.2,1-2.2h38.8c0.3,0,0.6,0.1,0.9,0.4
				l14,13.2C1049.7,1079.1,1049.2,1080.5,1048,1080.5z"/>
		</g>
		<polygon class="st11" points="435.6,666.1 743.1,873.7 1050.6,666.1 1055.2,636.1 742.9,848.2 435.6,635 		"/>
		<g>
			<g>
				<polygon class="st8" points="742.9,856.3 426.7,641.7 434.3,630.5 742.9,840 1051.4,630.5 1059,641.7 				"/>
			</g>
			<g>
				
					<rect x="404" y="884.3" transform="matrix(0.8273 -0.5617 0.5617 0.8273 -404.271 467.003)" class="st8" width="306.9" height="13.5"/>
			</g>
			<g>
				
					<rect x="923.5" y="741.5" transform="matrix(0.5617 -0.8273 0.8273 0.5617 -330.62 1160.8351)" class="st8" width="13.5" height="302"/>
			</g>
		</g>
		<g>
			<polygon class="st8" points="904,19 780.6,157.4 832.8,200.6 			"/>
		</g>
		<g>
			<polygon class="st8" points="904,19 814.2,152.4 832.8,200.6 			"/>
		</g>
		<g>
			<polygon class="st9" points="904,19 722.4,155.4 780.6,157.4 			"/>
		</g>
		<g>
			<polygon class="st9" points="904,19 814.2,152.4 884.1,149.7 			"/>
		</g>
		<path class="st8" d="M355,592.3c-1-1.2-0.9-3,0.3-4.1c3.9-3.3,7.6-6.9,11.2-10.6c1.1-1.1,2.9-1.2,4.1-0.1c1.1,1.1,1.2,2.9,0.1,4.1
			c-3.7,3.8-7.6,7.5-11.6,10.9c-0.2,0.2-0.5,0.4-0.8,0.5C357.2,593.5,355.9,593.3,355,592.3z"/>
		<path class="st8" d="M381.1,565.6c-1.3-1-1.5-2.8-0.5-4.1c4.3-5.5,8.4-11.4,12.2-17.5c0.9-1.4,2.6-1.8,4-0.9
			c1.4,0.8,1.8,2.6,0.9,4c-3.9,6.3-8.2,12.4-12.6,18c-0.3,0.4-0.7,0.7-1.1,0.9C383,566.3,381.9,566.2,381.1,565.6z"/>
		<path class="st8" d="M404.5,529.2c-1.4-0.7-2-2.5-1.3-3.9c3.1-6.2,6.1-12.8,8.8-19.6c0.6-1.5,2.3-2.2,3.8-1.6
			c1.5,0.6,2.2,2.3,1.6,3.8c-2.8,6.9-5.8,13.6-9,20c-0.3,0.6-0.8,1.1-1.5,1.4C406.2,529.6,405.3,529.6,404.5,529.2z"/>
		<path class="st8" d="M421.1,489.1c-1.5-0.5-2.4-2.1-1.9-3.6c2.1-6.7,4-13.6,5.7-20.7c0.4-1.5,1.9-2.5,3.5-2.1
			c1.6,0.4,2.5,1.9,2.1,3.5c-1.7,7.2-3.7,14.3-5.9,21.1c-0.3,0.8-0.9,1.5-1.6,1.8C422.5,489.3,421.8,489.3,421.1,489.1z"/>
		<path class="st8" d="M626.1,364.3c-0.7-1.5,0-3.2,1.5-3.8c6.6-3,13.2-6.1,19.5-9.2c1.4-0.7,3.2-0.1,3.9,1.3
			c0.7,1.4,0.1,3.2-1.3,3.9c-6.4,3.2-13,6.3-19.7,9.3c0,0,0,0,0,0C628.4,366.4,626.7,365.7,626.1,364.3z"/>
		<path class="st8" d="M609.8,374.2c-6.7,2.7-13.5,5.2-20.4,7.7c-1.5,0.5-3.2-0.3-3.7-1.8c-0.5-1.5,0.3-3.2,1.8-3.7
			c6.8-2.4,13.6-5,20.2-7.6c1.5-0.6,3.2,0.1,3.8,1.6C612,371.9,611.3,373.6,609.8,374.2C609.8,374.2,609.8,374.2,609.8,374.2z"/>
		<path class="st8" d="M431.7,447.1c-1.6-0.3-2.6-1.8-2.3-3.3c1.2-7,2.3-14.1,3.1-21.3c0.2-1.6,1.6-2.7,3.2-2.5
			c1.6,0.2,2.7,1.6,2.5,3.2c-0.9,7.3-1.9,14.6-3.2,21.6c-0.2,1-0.8,1.8-1.7,2.2C432.9,447.1,432.3,447.2,431.7,447.1z"/>
		<path class="st8" d="M665,345.1c-0.8-1.4-0.3-3.2,1.1-3.9c6.3-3.6,12.6-7.3,18.5-11c1.4-0.9,3.1-0.5,4,0.9c0.9,1.3,0.5,3.1-0.9,4
			c-6,3.8-12.3,7.6-18.8,11.2c-0.1,0.1-0.2,0.1-0.3,0.1C667.3,346.9,665.7,346.4,665,345.1z"/>
		<path class="st8" d="M568.7,388.8c-2.7,0.9-5.5,1.7-8.2,2.5c-4.3,1.3-8.6,2.4-12.9,3.5c-1.5,0.4-3.1-0.6-3.5-2.1
			c-0.4-1.6,0.6-3.1,2.1-3.5c4.2-1,8.4-2.2,12.6-3.4c2.7-0.8,5.4-1.6,8.1-2.4c1.5-0.5,3.1,0.4,3.6,1.9c0.4,1.4-0.3,2.9-1.6,3.5
			C568.9,388.7,568.8,388.7,568.7,388.8z"/>
		<path class="st8" d="M526.2,399.2c-7.2,1.2-14.5,2.2-21.7,2.9c-1.6,0.2-3-1-3.2-2.6c-0.2-1.6,1-3,2.6-3.2
			c7.1-0.7,14.2-1.6,21.3-2.9c1.6-0.3,3.1,0.8,3.3,2.4c0.2,1.3-0.5,2.6-1.7,3.2C526.7,399.1,526.5,399.2,526.2,399.2z"/>
		<path class="st8" d="M701.8,322.1c-0.9-1.3-0.6-3.1,0.7-4c5.9-4.3,11.6-8.7,17-13.1c1.2-1,3.1-0.8,4.1,0.4c1,1.2,0.8,3.1-0.4,4.1
			c-5.5,4.5-11.3,9-17.3,13.3c-0.2,0.1-0.4,0.2-0.6,0.3C704,323.6,702.6,323.2,701.8,322.1z"/>
		<path class="st8" d="M735.4,294.8c-1.1-1.2-1.1-3,0.1-4.1c5.2-5,10.2-10.2,14.9-15.4c1.1-1.2,2.9-1.3,4.1-0.3
			c1.2,1.1,1.3,2.9,0.3,4.1c-4.7,5.4-9.8,10.7-15.2,15.8c-0.3,0.3-0.6,0.4-0.9,0.6C737.6,295.9,736.3,295.7,735.4,294.8z"/>
		<path class="st8" d="M482.7,403.4c-7.3,0.1-14.7,0-21.9-0.5c-1.6-0.1-2.8-1.5-2.7-3.1c0.1-1.6,1.5-2.8,3.1-2.7
			c7.1,0.4,14.3,0.6,21.4,0.4c1.6,0,2.9,1.2,2.9,2.8c0,1.2-0.7,2.3-1.8,2.7C483.4,403.3,483.1,403.4,482.7,403.4z"/>
		<path class="st8" d="M437.1,404.1c-1.6-0.1-2.8-1.5-2.7-3.1c0-0.3,0-0.6,0.1-0.9c-5.7-0.9-11.4-2-17.1-3.3
			c-1.6-0.4-2.5-1.9-2.2-3.5c0.4-1.6,1.9-2.5,3.5-2.2c5.3,1.2,10.7,2.2,16.1,3.1c0.2-5,0.3-10,0.3-14.8c0-1.6,1.3-2.9,2.9-2.9
			c1.6,0,2.9,1.3,2.9,2.9c0,5.1-0.1,10.4-0.3,15.7c1.2,0.5,1.9,1.7,1.7,3.1c-0.2,1.1-0.9,2-2,2.4c0,0.2,0,0.5,0,0.7
			c-0.1,1.1-0.8,2.1-1.8,2.5C438,404,437.6,404.1,437.1,404.1z"/>
		<path class="st8" d="M764.4,262.6c-1.3-0.9-1.6-2.7-0.6-4c4.2-5.8,8.2-11.9,11.7-17.9c0.8-1.4,2.6-1.8,4-1.1
			c1.4,0.8,1.9,2.6,1.1,4c-3.6,6.2-7.6,12.4-12,18.4c-0.3,0.4-0.7,0.8-1.2,1C766.3,263.3,765.2,263.3,764.4,262.6z"/>
		<path class="st8" d="M786.6,225.5c-1.5-0.6-2.1-2.3-1.5-3.8c2.9-6.5,5.4-13.3,7.4-20c0.5-1.5,2.1-2.4,3.6-1.9
			c1.5,0.5,2.4,2.1,1.9,3.6c-2.1,7-4.7,13.9-7.6,20.7c-0.3,0.7-0.9,1.2-1.5,1.5C788.2,225.8,787.3,225.8,786.6,225.5z"/>
		<path class="st8" d="M396.2,391.2c-6.9-2.2-13.9-4.6-20.6-7.4c-1.5-0.6-2.2-2.3-1.6-3.8c0.6-1.5,2.3-2.2,3.8-1.6
			c6.6,2.7,13.4,5.1,20.2,7.2c1.5,0.5,2.4,2.1,1.9,3.6c-0.3,0.8-0.9,1.5-1.6,1.8C397.6,391.3,396.9,391.4,396.2,391.2z"/>
		<path class="st8" d="M437.3,360.7c-1.6,0.1-3-1.1-3.1-2.7c-0.5-7.2-1.4-14.4-2.5-21.3c-0.3-1.6,0.8-3.1,2.4-3.3
			c1.6-0.2,3.1,0.8,3.3,2.4c1.1,7,2,14.4,2.5,21.8c0.1,1.3-0.6,2.4-1.8,2.9C438,360.6,437.7,360.7,437.3,360.7z"/>
		<path class="st8" d="M355.6,374.8c-6.5-3.3-12.9-6.8-19.2-10.6c-1.4-0.8-1.8-2.6-1-4c0.8-1.4,2.6-1.8,4-1
			c6.1,3.7,12.4,7.2,18.8,10.4c1.4,0.7,2,2.5,1.3,3.9c-0.3,0.6-0.8,1.1-1.5,1.4C357.3,375.1,356.4,375.1,355.6,374.8z"/>
		<path class="st8" d="M431,317.8c-1.5,0.4-3.1-0.5-3.5-2.1c-1.8-7-4-13.9-6.4-20.4c-0.6-1.5,0.1-3.1,1.7-3.7
			c1.5-0.6,3.2,0.2,3.7,1.7c2.5,6.7,4.7,13.8,6.6,21c0.4,1.4-0.4,2.8-1.7,3.4C431.2,317.8,431.1,317.8,431,317.8z"/>
		<path class="st8" d="M318.2,352c-5.9-4.2-11.7-8.8-17.2-13.5c-1.2-1-1.4-2.9-0.3-4.1c1-1.2,2.9-1.4,4.1-0.3
			c5.5,4.6,11.1,9.1,16.9,13.2c1.3,0.9,1.6,2.7,0.7,4c-0.3,0.4-0.7,0.8-1.2,1C320.1,352.7,319.1,352.6,318.2,352z"/>
		<path class="st8" d="M412.4,275.9l-0.4-0.8c-3.1-5.9-6.7-11.7-10.7-17.4c-0.9-1.3-0.6-3.1,0.7-4c1.3-0.9,3.1-0.6,4,0.7
			c4.2,5.9,7.9,11.9,11.1,18l0.4,0.8c0.7,1.4,0.2,3.2-1.2,3.9c-0.1,0-0.1,0.1-0.2,0.1C414.7,277.8,413.1,277.2,412.4,275.9z"/>
		<path class="st8" d="M284.8,323.7c-5.2-5.1-10.2-10.5-15-16c-1-1.2-0.9-3,0.3-4.1c1.2-1.1,3-0.9,4.1,0.3
			c4.7,5.4,9.6,10.7,14.7,15.6c1.1,1.1,1.1,3,0,4.1c-0.3,0.3-0.6,0.5-0.9,0.6C286.9,324.8,285.7,324.6,284.8,323.7z"/>
		<path class="st8" d="M387.8,241.3c-4.9-5.2-10.1-10.1-15.6-14.5c-1.2-1-1.4-2.8-0.4-4.1c1-1.2,2.8-1.4,4.1-0.4
			c5.6,4.6,11.1,9.7,16.1,15.1c1.1,1.2,1,3-0.1,4.1c-0.3,0.2-0.5,0.4-0.8,0.6C389.9,242.4,388.6,242.2,387.8,241.3z"/>
		<path class="st8" d="M256,290.8l-2.2-2.9c-3.7-5-6.9-10.5-9.4-16.1c-0.7-1.5,0-3.2,1.5-3.8c0,0,0,0,0,0c1.4-0.6,3.1,0,3.8,1.5
			c2.4,5.3,5.3,10.4,8.8,15.1l2.1,2.9c1,1.3,0.7,3.1-0.6,4c-0.2,0.1-0.4,0.3-0.6,0.4C258.3,292.2,256.9,291.8,256,290.8z"/>
		<path class="st8" d="M354.8,214.5c-6.2-3.7-12.6-6.9-19-9.3c-1.5-0.6-2.2-2.3-1.6-3.7c0.6-1.5,2.3-2.2,3.7-1.6
			c6.7,2.6,13.4,5.9,19.9,9.8c1.4,0.8,1.8,2.6,1,4c-0.3,0.5-0.8,0.9-1.3,1.2C356.6,215,355.6,215,354.8,214.5z"/>
		<path class="st8" d="M241.6,252.6c-1.6,0.2-3-0.9-3.2-2.5c-1-8.1-0.3-15.7,2-22.7c0.5-1.5,2.1-2.3,3.6-1.9
			c1.5,0.5,2.4,2.1,1.9,3.6c-2,6.2-2.6,13-1.7,20.2c0.2,1.3-0.6,2.5-1.7,3C242.1,252.5,241.9,252.6,241.6,252.6z"/>
		<path class="st8" d="M315.5,199.5c-7-1.2-14.1-1.7-20.9-1.3c-1.6,0.1-3-1.1-3-2.7c-0.1-1.6,1.1-3,2.7-3c7.3-0.4,14.8,0.1,22.2,1.4
			c1.6,0.3,2.6,1.8,2.4,3.3c-0.2,1-0.8,1.8-1.7,2.2C316.7,199.5,316.1,199.6,315.5,199.5z"/>
		<path class="st8" d="M252.5,212.2c-1.1-1.2-1-3,0.2-4.1c5.4-5,12.1-9,19.5-11.6c1.5-0.5,3.2,0.3,3.7,1.8c0.5,1.5-0.3,3.1-1.8,3.7
			c-6.7,2.4-12.7,5.9-17.5,10.4c-0.3,0.2-0.5,0.4-0.8,0.5C254.7,213.4,253.4,213.1,252.5,212.2z"/>
		<g>
			<path class="st8" d="M383,654.5l-118,118c-3.6,3.6-9.3,3.6-12.9,0l-95.7-95.7c-3.6-3.6-3.6-9.3,0-12.9l118-118
				c3.6-3.6,9.3-3.6,12.9,0l95.7,95.7C386.6,645.2,386.6,651,383,654.5z"/>
			<g>
				<path class="st4" d="M285.6,555.8l0,71.2c0,1.2-0.1,2.5-0.2,3.7c-0.9,11.8-6,22.4-13.9,30.3c-7.9,7.9-18.5,13-30.3,13.9
					c-1.2,0.1-2.4,0.2-3.7,0.2l-5,0l-66.2,0c-0.4-2.9-0.4-5.8-0.1-8.7l66.3,0h5c1.2,0,2.5-0.1,3.7-0.2c18.8-1.7,33.8-16.7,35.5-35.5
					c0.1-1.2,0.2-2.5,0.2-3.7l0-5l0-66.3C279.8,555.4,282.6,555.5,285.6,555.8z"/>
				<path class="st4" d="M237.5,666.4c1.2,0,2.5-0.1,3.7-0.2l0,8.8l0,83.9c-3.1-1.6-6-3.6-8.7-6l0-77.7v-8.7H237.5z"/>
				<path class="st4" d="M363.3,622c2.4,2.7,4.4,5.6,6,8.7l-83.9,0h-8.7c0.1-1.2,0.2-2.5,0.2-3.7l0-5h8.7L363.3,622z"/>
			</g>
		</g>
		<g>
			<path class="st1" d="M527.3,347.9c-17.6,0-24.5,7.3-24.5,22.9c0,1.4-2.7,1.4-2.7,0c0-15.6-5.6-22.9-24.5-22.9
				c-1.4,0-1.4-2.7,0-2.7c19.6,0,24.5-9.1,24.5-22.9c0-1.4,2.7-1.4,2.7,0c0,16.4,6.7,22.9,24.5,22.9
				C528.7,345.2,528.7,347.9,527.3,347.9z"/>
		</g>
		<g>
			<path class="st1" d="M397.3,305c-26.2,0-36.6,10.8-36.6,34.2c0,2.1-4.1,2.1-4.1,0c0-23.3-8.3-34.2-36.6-34.2
				c-2.1,0-2.1-4.1,0-4.1c29.2,0,36.6-13.5,36.6-34.1c0-2.1,4.1-2.1,4.1,0c0,24.5,9.9,34.1,36.6,34.1
				C399.4,300.9,399.4,305,397.3,305z"/>
		</g>
		<g>
			<path class="st4" d="M359.1,492c-20.1,0-28,8.3-28,26.1c0,1.6-3.1,1.6-3.1,0c0-17.8-6.3-26.1-28-26.1c-1.6,0-1.6-3.1,0-3.1
				c22.3,0,28-10.3,28-26.1c0-1.6,3.1-1.6,3.1,0c0,18.8,7.6,26.1,28,26.1C360.7,488.9,360.7,492,359.1,492z"/>
		</g>
		<path class="st12" d="M576.1,623.5l-100.5-5.3c0,0,7.9,76.7-18.5,82h97.8C554.9,700.2,597.2,655.3,576.1,623.5z"/>
		<g>
			<path d="M532.8,657.7c-1.1,0.2-2,0.3-2.6,0.3c-0.6,0-1-0.2-1.2-0.5l-0.9,0.1c-0.1,0-0.3-0.2-0.5-0.5l-0.4-0.4
				c-0.3-0.2-0.5-0.5-0.5-1l0-0.5c0.1-0.1,0.1-0.2,0.2-0.5c0-0.1,0.1-0.2,0.3-0.4c0.1-0.1,0.1-0.1,0.2-0.1c0.1,0,0.1-0.1,0.2-0.1
				c0.1,0,0.3-0.1,0.6-0.3c0.3-0.2,0.6-0.2,0.8-0.2l0.7-0.3c0.3-0.1,0.7-0.2,1.3-0.4c0.5,0,1,0.2,1.5,0.7c0.1,0,0.2,0.1,0.4,0.4
				c0.1,0.3,0.2,0.7,0.2,1.2c0.3,1,0.4,1.6,0.4,1.8C533.3,657.4,533.1,657.7,532.8,657.7z M515.7,657c0-0.2,0.1-0.6,0.2-1
				c0-1,0.2-1.8,0.7-2.3c0.5-0.5,1-0.8,1.5-0.8c0.2,0.2,0.7,0.3,1.3,0.4l0.7,0.3c0.1,0,0.3,0.1,0.7,0.3c0.7,0.2,1.2,0.4,1.3,0.7
				c0.1,0.1,0.1,0.3,0.2,0.6v0c0,0.7-0.1,1.2-0.4,1.5l-0.4,0.4c-0.3,0.3-0.5,0.5-0.7,0.5c-0.2,0-0.3-0.1-0.4-0.2
				c-0.6,0.4-1.1,0.5-1.7,0.5l-2.3-0.3C516,657.7,515.8,657.4,515.7,657z"/>
			<path d="M524.4,668.3c0.3,0.1,0.6,0.1,0.9,0.1s0.6-0.1,1-0.4h0c0,0,0.1-0.1,0.3-0.1c0.2,0,0.6-0.1,1.2-0.3
				c0.6-0.2,0.9-0.3,0.9-0.3c0.7-0.4,1.1-0.6,1.3-0.6c0.1,0,0.2,0,0.2,0v-0.1c0.5-0.4,0.8-0.6,0.9-0.6l0.8-0.5
				c0.9-0.5,1.3-0.9,1.2-1c0.1,0,0.1,0,0.1,0c0.6-0.6,1-0.8,1-0.8l0.9-1.6c0.4,0.1,0.6,0.6,0.6,1.4l-0.2,1.1l-0.8,1.9
				c-0.3,0.5-0.6,0.8-0.8,0.8l-1.6,1.6c-1,0.9-2.3,1.6-3.7,2.3c-1.5,0.7-2.4,1-2.9,1.1l-1.1,0.3c-1.1,0.3-2.5,0.5-4.2,0.5
				c-1.4,0-2.3-0.1-2.6-0.2h-0.7c-0.4,0-0.7,0-1-0.1l-3.2-0.6l-0.8-0.2c-0.8-0.2-1.3-0.4-1.5-0.5c-0.1-0.1-0.1-0.1-0.1,0l-1.6-0.7
				c-1-0.4-1.7-0.9-2.2-1.3c-0.5-0.4-0.8-0.7-0.8-1c-0.1-0.3-0.1-0.5-0.1-0.9s0-0.5,0-0.6v-0.3c0.4-0.6,0.6-0.8,0.7-0.8
				c0.3,0,0.6,0.1,0.9,0.4c0.3,0.3,0.6,0.4,0.7,0.4c0.6,0.4,1.1,0.6,1.4,0.7l0.9,0.3c2.3,0.3,3.8,0.4,4.3,0.6
				c0.2,0.1,0.5,0.1,0.7,0.1c0.3,0,1,0.1,2.4,0.2c1.3,0.1,2.4,0.2,3.2,0.2c0.8,0,1.3,0,1.4,0.2C523.2,668.5,523.8,668.3,524.4,668.3
				z"/>
		</g>
	</g>
</g>
</svg>
