<?xml version="1.0" encoding="utf-8"?>
<!-- Generator: Adobe Illustrator 25.0.0, SVG Export Plug-In . SVG Version: 6.00 Build 0)  -->
<svg version="1.1" id="Layer_1" xmlns="http://www.w3.org/2000/svg" xmlns:xlink="http://www.w3.org/1999/xlink" x="0px" y="0px"
	 viewBox="0 0 98 98" style="enable-background:new 0 0 98 98;" xml:space="preserve">
<style type="text/css">
	.st0{fill:#0B0754;}
	.st1{fill:#FFFFFF;}
</style>
<path class="st0" d="M0.6,71.9V26c0-13.8,11.3-25.2,25.2-25.2h45.9c13.8,0,25.2,11.3,25.2,25.2l0,45.9C96.8,85.7,85.5,97,71.6,97
	H56.2l-8.1-2l-7,2l-15.4,0C11.9,97,0.6,85.7,0.6,71.9z"/>
<g>
	<path class="st1" d="M67.4,64.4l2.1-13.9H56.2v-9c0-3.8,1.9-7.5,7.8-7.5h6.1V22.2c0,0-5.5-0.9-10.8-0.9c-11,0-18.2,6.7-18.2,18.7
		v10.6H29v13.9h12.2V97h15V64.4H67.4z"/>
</g>
</svg>
