<?xml version="1.0" encoding="utf-8"?>
<!-- Generator: Adobe Illustrator 25.0.0, SVG Export Plug-In . SVG Version: 6.00 Build 0)  -->
<svg version="1.1" id="Layer_1" xmlns="http://www.w3.org/2000/svg" xmlns:xlink="http://www.w3.org/1999/xlink" x="0px" y="0px"
	 viewBox="0 0 98 98" style="enable-background:new 0 0 98 98;" xml:space="preserve">
<style type="text/css">
	.st0{fill:#0B0754;}
	.st1{fill:#FFFFFF;}
</style>
<path class="st0" d="M41.2,97l-15.4,0C11.9,97,0.6,85.7,0.6,71.9V26c0-13.8,11.3-25.2,25.2-25.2h45.9c13.8,0,25.2,11.3,25.2,25.2
	l0,45.9C96.8,85.7,85.5,97,71.6,97H56.2H41.2z"/>
<g>
	<path class="st1" d="M63.6,30.8c-1.8,0-3.3,1.5-3.3,3.3c0,1.8,1.5,3.3,3.3,3.3c1.8,0,3.3-1.5,3.3-3.3
		C66.9,32.3,65.4,30.8,63.6,30.8z"/>
	<path class="st1" d="M48.9,35.1c-7.7,0-13.9,6.2-13.9,13.9c0,7.7,6.2,13.9,13.9,13.9c7.7,0,13.9-6.2,13.9-13.9
		C62.8,41.3,56.6,35.1,48.9,35.1z M48.9,57.8c-4.9,0-8.9-4-8.9-8.9s4-8.9,8.9-8.9c4.9,0,8.9,4,8.9,8.9S53.8,57.8,48.9,57.8z"/>
	<path class="st1" d="M59.9,77.1H37.4c-9.3,0-16.9-7.6-16.9-16.9V37.7c0-9.3,7.6-16.9,16.9-16.9h22.5c9.3,0,16.9,7.6,16.9,16.9v22.5
		C76.9,69.5,69.3,77.1,59.9,77.1z M37.4,26.1c-6.4,0-11.6,5.2-11.6,11.6v22.5c0,6.4,5.2,11.6,11.6,11.6h22.5
		c6.4,0,11.6-5.2,11.6-11.6V37.7c0-6.4-5.2-11.6-11.6-11.6H37.4z"/>
</g>
</svg>
