<?xml version="1.0" encoding="utf-8"?>
<!-- Generator: Adobe Illustrator 25.0.0, SVG Export Plug-In . SVG Version: 6.00 Build 0)  -->
<svg version="1.1" id="Layer_1" xmlns="http://www.w3.org/2000/svg" xmlns:xlink="http://www.w3.org/1999/xlink" x="0px" y="0px"
	 viewBox="0 0 98 98" style="enable-background:new 0 0 98 98;" xml:space="preserve">
<style type="text/css">
	.st0{fill:#0B0754;}
	.st1{fill:#FFFFFF;}
</style>
<path class="st0" d="M41.2,97l-15.4,0C11.9,97,0.6,85.7,0.6,71.9V26c0-13.8,11.3-25.2,25.2-25.2h45.9c13.8,0,25.2,11.3,25.2,25.2
	l0,45.9C96.8,85.7,85.5,97,71.6,97H56.2H41.2z"/>
<g>
	<path class="st1" d="M27,41.4h9.3v29.9H27V41.4z M31.6,26.6c3,0,5.4,2.4,5.4,5.4c0,3-2.4,5.4-5.4,5.4c-3,0-5.4-2.4-5.4-5.4
		C26.2,29,28.7,26.6,31.6,26.6"/>
	<path class="st1" d="M42.1,41.4h8.9v4.1h0.1c1.2-2.4,4.3-4.8,8.8-4.8c9.4,0,11.1,6.2,11.1,14.2v16.4h-9.3V56.8
		c0-3.5-0.1-7.9-4.8-7.9c-4.8,0-5.6,3.8-5.6,7.7v14.8h-9.3V41.4z"/>
</g>
</svg>
