<svg xmlns="http://www.w3.org/2000/svg" xmlns:xlink="http://www.w3.org/1999/xlink" width="1168.3252" height="1179.1253" viewBox="0 0 1168.3252 1179.1253"><defs><style>.a,.m,.p{fill:none;}.b{clip-path:url(#a);}.c{fill:#00f7c1;stroke:#00f7c1;stroke-width:15px;}.c,.p{stroke-linejoin:round;}.d{clip-path:url(#b);}.e{fill:#fff;}.f{fill:#0b0754;}.g{fill:#f29997;}.h{fill:#fbe2a0;}.i{fill:#13134f;}.j{fill:#f3b5b3;}.k{fill:#111010;}.l{fill:#d97676;}.m{stroke:#d97676;stroke-miterlimit:10;stroke-width:1.7441px;}.m,.p{stroke-linecap:round;}.n{fill:#222b45;}.o{fill:#fd5852;}.p{stroke:#021833;stroke-width:2.0719px;}.q{fill:#151c1e;}.r{fill:#242f34;}</style><clipPath id="a" transform="translate(-97.066 -143.2656)"><rect class="a" width="1346.0293" height="936.6"/></clipPath><clipPath id="b" transform="translate(-97.066 -143.2656)"><circle class="a" cx="775.5268" cy="239.2996" r="52.8592"/></clipPath></defs><g class="b"><path class="c" d="M113.2164,936.6l367.5076-1.968,97.9611-.03,32.454-.0119,98.148-.03,448.4-.1263s102.5628-135.5993-6.9917-264.388c-113.5884-133.53-168.8194-24.7827-203.735-212.7418C859.0741-15.816-9.8485,259.5507,218.0632,662.1582,300.1267,807.1236,56.5278,730.0727,113.2164,936.6Z" transform="translate(-97.066 -143.2656)"/><g class="d"><rect class="e" x="625.3055" y="43.1394" width="106.2853" height="106.2853"/></g><path class="f" d="M740.7513,246.3748a2.2184,2.2184,0,0,0,2.0488,0l1.6769,10.8612c0,2.05-5.3261,2.05-5.3261,0Z" transform="translate(-97.066 -143.2656)"/><path class="f" d="M741.8139,259.6011c-2.0553,0-3.4909-.9725-3.4909-2.3651v-.0606l.0089-.06,1.8026-12.2337,1.1077.8264a1.5791,1.5791,0,0,0,1.0865-.0138l1.0876-.7537,1.8885,12.2319v.0635C745.3048,258.6286,743.8692,259.6011,741.8139,259.6011Z" transform="translate(-97.066 -143.2656)"/><path class="f" d="M742.8087,227.3611a3.28,3.28,0,0,0-1.6507,2.8426v15.3928a.6558.6558,0,0,0,1.3115,0V230.2037a1.965,1.965,0,0,1,.9894-1.7036" transform="translate(-97.066 -143.2656)"/><path class="f" d="M741.8137,247.08a1.4851,1.4851,0,0,1-1.4836-1.4834V230.2037a4.108,4.108,0,0,1,2.0685-3.5615l.65,1.139,0,0,.82,1.438a1.1358,1.1358,0,0,0-.5718.9846v15.3928A1.4851,1.4851,0,0,1,741.8137,247.08Z" transform="translate(-97.066 -143.2656)"/><path class="f" d="M743.2529,245.5965a1.4391,1.4391,0,1,0-1.4391,1.4391A1.4391,1.4391,0,0,0,743.2529,245.5965Z" transform="translate(-97.066 -143.2656)"/><path class="f" d="M741.8137,247.8635a2.267,2.267,0,1,1,2.267-2.267A2.27,2.27,0,0,1,741.8137,247.8635Z" transform="translate(-97.066 -143.2656)"/><polygon class="f" points="678.448 61.127 715.731 82.653 678.448 104.178 641.165 82.653 678.448 61.127"/><path class="f" d="M775.5137,248.3547a.91.91,0,0,1-.4556-.1219l-37.2822-21.5252a.9115.9115,0,0,1,0-1.5787l37.2822-21.5253a.9111.9111,0,0,1,.9112,0l37.2831,21.5253a.9116.9116,0,0,1,0,1.5787l-37.2831,21.5252A.91.91,0,0,1,775.5137,248.3547Zm-35.46-22.4365,35.46,20.473,35.4606-20.473-35.4606-20.4729Z" transform="translate(-97.066 -143.2656)"/><polygon class="f" points="678.448 61.127 715.731 82.653 678.448 104.178 641.165 82.653 678.448 61.127"/><path class="f" d="M775.5137,248.3547a.91.91,0,0,1-.4556-.1219l-37.2822-21.5252a.9115.9115,0,0,1,0-1.5787l37.2822-21.5253a.9111.9111,0,0,1,.9112,0l37.2831,21.5253a.9116.9116,0,0,1,0,1.5787l-37.2831,21.5252A.91.91,0,0,1,775.5137,248.3547Z" transform="translate(-97.066 -143.2656)"/><path class="f" d="M775.5356,275.6138a25.76,25.76,0,0,1-25.66-25.8008l-.0426-25.43,8.2781-.0139.0427,25.4368a17.3825,17.3825,0,1,0,34.7638.007V224.3762h8.2781V249.813A25.76,25.76,0,0,1,775.5356,275.6138Z" transform="translate(-97.066 -143.2656)"/><path class="f" d="M864.2052,266.1515v-95.419c0-7.2774,3.1969-13.1984,7.1267-13.1984H1201.581c3.93,0,7.1267,5.921,7.1267,13.1984V278.96c0,7.2778-3.1969,13.1988-7.1267,13.1988H864.2052V266.1515Z" transform="translate(-97.066 -143.2656)"/><path class="e" d="M930.1737,220.1979h3.9453v11.2178a16.9991,16.9991,0,0,1-10.89,3.6572c-8.8349,0-15.3271-6.2045-15.3271-14.7109s6.4922-14.7109,15.4092-14.7109c4.5615,0,8.4238,1.52,11.0537,4.438l-2.5479,2.5478a11.4009,11.4009,0,0,0-8.3418-3.3286c-6.6562,0-11.4638,4.6436-11.4638,11.0537,0,6.3281,4.8076,11.0537,11.4228,11.0537a12.1738,12.1738,0,0,0,6.7393-1.8491Z" transform="translate(-97.066 -143.2656)"/><path class="e" d="M960.9979,225.17H943.329c.4931,3.8213,3.5752,6.3692,7.89,6.3692a8.1309,8.1309,0,0,0,6.2871-2.63l2.1777,2.5473a10.9318,10.9318,0,0,1-8.5878,3.5342c-7.0274,0-11.712-4.6435-11.712-11.1357A10.6663,10.6663,0,0,1,950.3143,212.76c6.2871,0,10.7666,4.52,10.7666,11.2182C961.0809,224.3068,961.0389,224.8,960.9979,225.17Zm-17.6689-2.8354H957.3a7.0291,7.0291,0,0,0-13.9707,0Z" transform="translate(-97.066 -143.2656)"/><path class="e" d="M978.7948,233.47a7.4389,7.4389,0,0,1-4.7666,1.52c-4.3965,0-6.9033-2.4243-6.9033-6.8213V216.2121h-3.6983v-3.2466h3.6983v-4.7666H971.07v4.7666h6.2461v3.2466H971.07v11.793c0,2.3423,1.2324,3.6572,3.41,3.6572a4.9686,4.9686,0,0,0,3.0821-1.0273Z" transform="translate(-97.066 -143.2656)"/><path class="e" d="M1013.0292,226.1149c0,4.9722-3.5342,8.958-10.89,8.958-4.0674,0-8.0947-1.3149-10.5605-3.4926l1.8906-3.2461a12.9217,12.9217,0,0,0,8.6289,3.0815c4.3564,0,6.8213-2.0132,6.8213-5.1362,0-3.2466-2.0547-5.26-8.711-5.26h-6.5341l1.52-15.04h16.2314v3.5747H998.6473l-.7812,7.89h3.205C1009.66,217.4445,1013.0292,221.02,1013.0292,226.1149Z" transform="translate(-97.066 -143.2656)"/><path class="e" d="M1016.4442,220.362c0-9.3686,5.0127-14.7109,11.7519-14.7109,6.6983,0,11.711,5.3423,11.711,14.7109s-5.0127,14.7109-11.711,14.7109C1021.4569,235.0729,1016.4442,229.7311,1016.4442,220.362Zm19.3545,0c0-7.3555-3.1231-11.0537-7.6026-11.0537-4.52,0-7.6425,3.6982-7.6425,11.0537s3.122,11.0537,7.6425,11.0537C1032.6756,231.4157,1035.7987,227.7175,1035.7987,220.362Z" transform="translate(-97.066 -143.2656)"/><path class="e" d="M1043.4051,213.5822c0-4.6845,2.7119-7.8486,6.6983-7.8486s6.6562,3.123,6.6562,7.8486-2.6709,7.8482-6.6562,7.8482S1043.4051,218.2663,1043.4051,213.5822Zm10.7246,0c0-3.4521-1.52-5.5063-4.0263-5.5063-2.4659,0-4.0274,2.0957-4.0274,5.5063s1.5615,5.5059,4.0274,5.5059C1052.6092,219.0881,1054.13,217.0339,1054.13,213.5822Zm13.3145-7.602h3.1641l-19.6426,28.7641h-3.1641Zm-5.794,21.1621c0-4.6846,2.6709-7.8487,6.6563-7.8487s6.6982,3.1641,6.6982,7.8487-2.7119,7.8486-6.6982,7.8486S1061.65,231.8269,1061.65,227.1423Zm10.6836,0c0-3.4107-1.5615-5.5064-4.0273-5.5064-2.5068,0-4.0264,2.0547-4.0264,5.5064s1.52,5.5063,4.0264,5.5063C1070.7723,232.6486,1072.3338,230.5529,1072.3338,227.1423Z" transform="translate(-97.066 -143.2656)"/><path class="e" d="M1089.3124,223.8552c0-6.4927,4.8076-11.0952,11.3418-11.0952s11.3,4.6025,11.3,11.0952-4.7666,11.1357-11.3,11.1357S1089.3124,230.3474,1089.3124,223.8552Zm18.6562,0c0-4.6436-3.123-7.6431-7.3144-7.6431s-7.3555,3-7.3555,7.6431,3.164,7.6841,7.3555,7.6841S1107.9686,228.4982,1107.9686,223.8552Z" transform="translate(-97.066 -143.2656)"/><path class="e" d="M1121.8622,211.0754v1.89h6.3281v3.2466h-6.2461v18.5322h-3.9453V216.2121h-3.6983v-3.2466h3.6983v-1.9311c0-4.2324,2.5478-7.0269,7.1914-7.0269a7.3583,7.3583,0,0,1,4.4375,1.2739l-1.1914,3a5.1112,5.1112,0,0,0-3.041-1.0274C1123.0536,207.2536,1121.8622,208.5686,1121.8622,211.0754Z" transform="translate(-97.066 -143.2656)"/><path class="e" d="M1136.3709,211.0754v1.89h6.3282v3.2466h-6.2461v18.5322h-3.9453V216.2121h-3.6983v-3.2466h3.6983v-1.9311c0-4.2324,2.5478-7.0269,7.1914-7.0269a7.3585,7.3585,0,0,1,4.4375,1.2739l-1.1914,3a5.1115,5.1115,0,0,0-3.041-1.0274C1137.5624,207.2536,1136.3709,208.5686,1136.3709,211.0754Z" transform="translate(-97.066 -143.2656)"/><path class="e" d="M1145.659,232.361a2.6167,2.6167,0,0,1,2.7129-2.63,2.63,2.63,0,0,1,0,5.26A2.6419,2.6419,0,0,1,1145.659,232.361Zm.37-26.3808h4.6435l-.7812,19.6826h-3.1221Z" transform="translate(-97.066 -143.2656)"/><path class="g" d="M826.4927,664.9068" transform="translate(-97.066 -143.2656)"/><path class="h" d="M736.6129,816.4712c-76.3429-.9711-300.9361,4.6885-313.6638,4.71-9.3484,22.8133-67.3134,501.21-67.3134,501.21H535.38l37.7346-205.9038,24.6812,205.9038H771.2669S739.4671,836.4639,736.6129,816.4712Z" transform="translate(-97.066 -143.2656)"/><polyline class="h" points="556.081 800.649 492.64 848.318 476.048 973.222"/><path class="i" d="M427.2326,284.2573s.91,16.4819-5.4624,23.214c-19.0235,20.096-78.0344,39.9541-37.6452,116.691l284.9037-28.6129s11.0246-33.2747-22.59-48.6011c0,0-11.7721-6.0609-7.0614-28.3472s-13.7064-35.94-36.7116-56.9236l-46.8125-57.4932Z" transform="translate(-97.066 -143.2656)"/><path class="i" d="M580.4344,398.9849l-140.0139,18.76s-50.6689-218.9364,44.5147-259.9071c101.0624-43.5011,143.7124,19.8591,165.0375,66.1973Z" transform="translate(-97.066 -143.2656)"/><path class="j" d="M521.0612,150.9413a68.2173,68.2173,0,0,0-17.4521,12.1348c-48.0585,45.8358-18.144,135.32,24.5532,175.8185,23.6323,22.4184,58.2675,32.929,88.5957,21.69,44.3548-16.4347,58.4277-66.548,49.6259-111.2541-6.5619-33.3116-24.8675-64.8182-52.0436-84.4971C587.1976,145.18,550.4049,136.7545,521.0612,150.9413Z" transform="translate(-97.066 -143.2656)"/><path class="j" d="M512.41,311.8935c-8.4136,8.2755-23.0242,11.5758-34.2273,7.5924-11.2011-3.9831-20.3706-14.6036-23.2079-26.88-2.5438-11.0143.32-23.514,8.4508-30.2016,8.1286-6.6891,22.6717-6.21,29.5423,2.5795Z" transform="translate(-97.066 -143.2656)"/><path class="j" d="M500.2786,282.6227,508.4,440.5946a55.2284,55.2284,0,0,0,53.8533,53.23h0a55.2245,55.2245,0,0,0,56.1453-62.0137L601.2261,285.0723Z" transform="translate(-97.066 -143.2656)"/><path class="k" d="M612.8235,384.1675l-2.1169-21.64s-43.5236,13.1693-82.5443-23.6331C528.1623,338.8946,550.5157,380.1591,612.8235,384.1675Z" transform="translate(-97.066 -143.2656)"/><path class="l" d="M625.582,283.6018a51.0537,51.0537,0,0,1,3.241-4.8577c1.1457-1.5656,2.3635-3.0727,3.602-4.563l.4851,1.5621a12.8783,12.8783,0,0,1-3.926-2.1248,21.3093,21.3093,0,0,1-3.1-2.9861,29.8941,29.8941,0,0,1-2.5249-3.3989,27.5755,27.5755,0,0,1-2.0034-3.6958,62.7741,62.7741,0,0,0,5.5622,6.104,25.64,25.64,0,0,0,3.1165,2.5305,11.7409,11.7409,0,0,0,3.4263,1.687l1.42.3936-.9348,1.1687c-1.21,1.5134-2.4412,3.01-3.7439,4.4477a51.137,51.137,0,0,1-4.105,4.1529.3369.3369,0,0,1-.5156-.42Z" transform="translate(-97.066 -143.2656)"/><path class="l" d="M637.8479,297.16a20.6777,20.6777,0,0,1-3.9248,4.3137,20.4152,20.4152,0,0,1-5.0269,3.1347,17.4564,17.4564,0,0,1-5.8474,1.4414,17.6446,17.6446,0,0,1-6.0208-.7072,24.4307,24.4307,0,0,1-10.0112-6.334,41.25,41.25,0,0,1-6.865-9.4011,78.8414,78.8414,0,0,0,7.9134,8.2773,34.2423,34.2423,0,0,0,4.5263,3.3023,27.5966,27.5966,0,0,0,2.43,1.323,21.7176,21.7176,0,0,0,2.5715.947,17.0009,17.0009,0,0,0,10.7427-.2735,23.1434,23.1434,0,0,0,5.0161-2.4841A28.9243,28.9243,0,0,0,637.8479,297.16Z" transform="translate(-97.066 -143.2656)"/><path class="m" d="M489.1922,295.0433c-6.5119.637-12.1893-2.9173-12.68-7.9371-.3683-3.7654,2.2852-7.2869,6.3824-9.0806" transform="translate(-97.066 -143.2656)"/><path class="n" d="M591.6174,240.4343a43.8547,43.8547,0,0,1,1.552,15.4168,14.115,14.115,0,0,1-2.688,7.4123,8.0334,8.0334,0,0,1-3.2851,2.4038,10.6415,10.6415,0,0,1-3.9871.6883,11.8268,11.8268,0,0,1-7.3184-3.0174,23.4358,23.4358,0,0,1-4.904-6.1252,50.1977,50.1977,0,0,1-5.3757-14.544.3523.3523,0,0,1,.687-.1562l.0034.0141a56.7355,56.7355,0,0,0,2.2871,7.2957,44.671,44.671,0,0,0,3.2458,6.8936,22.45,22.45,0,0,0,4.7305,5.8217,10.7623,10.7623,0,0,0,6.6743,2.71,9.5716,9.5716,0,0,0,3.5672-.57,6.9812,6.9812,0,0,0,2.8911-2.0644,13.1885,13.1885,0,0,0,2.5508-6.8706,35.5643,35.5643,0,0,0,0-7.6,54.0147,54.0147,0,0,0-1.2078-7.554l-.0027-.0119a.2983.2983,0,0,1,.5791-.1431Z" transform="translate(-97.066 -143.2656)"/><path class="n" d="M654.7905,230.8159a43.0329,43.0329,0,0,1,1.4089,12.9175,13.718,13.718,0,0,1-1.8007,6.3909,6.4747,6.4747,0,0,1-2.5506,2.3466,7.1128,7.1128,0,0,1-3.3867.71,9.1421,9.1421,0,0,1-6.0525-2.8694,21.009,21.009,0,0,1-3.7847-5.4012,47.97,47.97,0,0,1-4.08-12.343.3523.3523,0,0,1,.6892-.1465l.0029.013a53.865,53.865,0,0,0,1.7923,6.1421,42.3054,42.3054,0,0,0,2.51,5.8589,21.0581,21.0581,0,0,0,3.6279,5.1047,8.0572,8.0572,0,0,0,5.33,2.5332,6.0218,6.0218,0,0,0,2.8713-.57,5.3992,5.3992,0,0,0,2.1475-1.9519,13.21,13.21,0,0,0,1.7131-5.8955,35.1313,35.1313,0,0,0-.0745-6.3616,51.722,51.722,0,0,0-.9421-6.3332l-.0024-.011a.2983.2983,0,0,1,.5815-.1333Z" transform="translate(-97.066 -143.2656)"/><path class="i" d="M624.2447,170.5335a29.5643,29.5643,0,0,1,11.832,17.1727c3.2147,13.7588-3.2391,33.5368-66.3591,34.238-58.7127.6526-46.0774,40.1857-86.1195,35.8177L459.47,248.61s17.2821-132.7931,124.8005-99.84C598.6984,153.1912,615.6666,164.4277,624.2447,170.5335Z" transform="translate(-97.066 -143.2656)"/><path class="j" d="M804.896,679.8331l109.9981,108.935-17.1852,19.28c-10.1325,11.3678-23.0521,20.1266-37.6885,24.3307-34.7515,9.9818-70.9782-4.975-96.327-41.6874l-39.9646-57.4588Z" transform="translate(-97.066 -143.2656)"/><path class="j" d="M888.287,817.2749,1100.706,615.224l-52.29-48.8045L830.17,743.8262C809.8472,760.346,829.2606,848.4274,888.287,817.2749Z" transform="translate(-97.066 -143.2656)"/><path class="o" d="M845.4968,700.04c37.7327-49.5057-86.8393-248.343-138.7979-280.91-29.7431-18.6428-64.155-14.67-87.5-15.2848-1.2627,10.64-11.4819,24.8942-38.3089,30.8034-40.6224,8.9479-66.267-4.17-78.2066-10.2722-27.7772,5.44-60.9756,17.05-80.5581,26.2979-32.3683,15.2862-56.4246,258.5014-8.9093,282.3045-7.2128,51.3537-14.0779,128.7386-14.0779,128.7386l351.0869-26.55L740.1325,765.33S827.9893,723.01,845.4968,700.04Z" transform="translate(-97.066 -143.2656)"/><line class="p" x1="635.9348" y1="518.3685" x2="645.0196" y2="606.9131"/><path class="j" d="M585.7047,755.9683l-21.74,10.2178c-2.0656.8983,36.02,50.24,36.02,50.24s102.8527-25.16,109.03-30.1533S674.885,784.87,674.885,784.87s37.3733-10.6919,46.4761-18.9064c7.2473-6.5377-44.8027-1.2735-44.8027-1.2735,18.6931-6.6643,54.15-16.8541,52.9828-23.156-1.4652-7.8943-61.125,9.2255-61.125,9.2255s40.791-15.3725,41.5252-23.2126-80.0086,12.9057-80.0086,12.9057,11.1245-15.7464,6.8071-33.0473c-1.0983-4.4008-6.6782-6.832-10.039-6.596C624.5579,723.7235,585.7047,755.9683,585.7047,755.9683Z" transform="translate(-97.066 -143.2656)"/><path class="j" d="M326.9925,668.3634s-25.7256,101.4231-7.2178,176.15c30.8487,124.55,315.2429-45.4,315.2429-45.4l-19.0991-56.624s-206.5308,49.9469-205.2623,42.0391c3.1978-19.9525,11.2717-86.8093,11.2717-86.8093Z" transform="translate(-97.066 -143.2656)"/><path class="o" d="M456.2868,755.3926s-178.3195,51.0383-174.7957,4.5207c6.3255-83.5054,80.3493-253.6385,131.0968-304.386,16.5756-16.5753,76.5665-31.2456,90.0956-31.1511Z" transform="translate(-97.066 -143.2656)"/><path class="p" d="M436.3177,758.7919s4.3063-32.2994,17.2262-103.3581" transform="translate(-97.066 -143.2656)"/><path class="q" d="M771.67,618.0968H921.2654V594.1357H771.67a11.98,11.98,0,0,0-11.98,11.98h0A11.9809,11.9809,0,0,0,771.67,618.0968Z" transform="translate(-97.066 -143.2656)"/><path class="r" d="M893.31,618.0968h281.4108a36.1,36.1,0,0,0,34.7777-26.42l54.875-197.1475a27.3481,27.3481,0,0,0-26.3466-34.6821H979.5612a23.8109,23.8109,0,0,0-23.0283,17.7577Z" transform="translate(-97.066 -143.2656)"/><path class="j" d="M994.0773,616.62s-.103,28.8078,34.9487,24.2865c0,0,17.91-9.8232,15.6508-53.5079-.2666-5.1519-5.4838-9.2336-11.7546-9.2558h0c-5.6979-.02-10.5922,3.3135-11.6261,7.9195l-6.8759,30.63Z" transform="translate(-97.066 -143.2656)"/><path class="j" d="M1029.026,640.9068s14.6175,6.8565,28.6888.0283c0,0,13.047,3.1231,22.7255-3.3529,0,0,4.8712,1.8925,12.2109-1.4574a14.8659,14.8659,0,0,0,8.4894-13.1551c.2544-9.024-.7415-24.5962-9.453-33.7618a8.16,8.16,0,0,0-8.01-2.25c-2.3372.6165-3.651.0642-5.0914,2.9795,0,0-3.3572-5.9034-9.0021-5.9237s-8.5738,2.8645-9.9093,6.5777c0,0,2.4283-13.9777-16.6249-10.4592S1029.026,640.9068,1029.026,640.9068Z" transform="translate(-97.066 -143.2656)"/><path class="p" d="M502.6835,424.3762s19.3424,19.131,64.5033,13.6458c14.1307-1.7163,27.7185-7.0826,38.487-16.3918,5.4679-4.7268,10.6185-10.6741,13.5252-17.7852" transform="translate(-97.066 -143.2656)"/></g></svg>